<?xml version="1.0" encoding="UTF-8"?>
<svg xmlns="http://www.w3.org/2000/svg" width="642.8687133789064" height="175.98814392089844" viewBox="470.7550839948493 -2.123798464791946 642.8687133789064 175.98814392089844">
  <g>
    <defs>
      <path id="s-Path_1-e4296" d="M1093.8473646902153 0.12860460562393428 L506.79233610083986 0.12860460562393428 L769.5301156133343 86.63055030476808 L915.266967128411 136.06023738135738 C915.266967128411 136.06023738135738 995.3202561704747 162.83449411966072 1017.8999868460967 144.29845171191693 C1040.4779527114974 125.76240930417318 1093.8473646902153 0.12860460562393428 1093.8473646902153 0.12860460562393428 Z "></path>
      <path id="s-Path_2-e4296" d="M853.7681440432174 68.32274435455727 L857.8056822148707 68.32274435455727 L857.8056822148707 97.25842567155635 L853.7681440432174 97.25842567155635 L853.7681440432174 68.32274435455727 Z M864.0652501525839 76.2295888265638 L867.9345698227115 76.2295888265638 L867.9345698227115 77.61749173745872 C869.1402293387331 76.94457093714557 870.233716447522 76.46791842505345 871.2150578886273 76.18753420118237 C872.1963993297323 75.90714997731129 873.2338403442283 75.76695452293215 874.3273274530172 75.76695452293215 C876.0937420470066 75.76695452293215 877.4816583276759 76.11743647399281 878.4910495554764 76.8183936912269 C879.5004140437281 77.5193575933482 880.215402839197 78.61285807191157 880.6359892023345 80.09889512691701 C881.0565488259232 81.55689576500151 881.2668553772662 83.54762174902001 881.2668553772662 86.07108644874693 L881.2668553772662 97.25842567155635 L877.35547439687 97.25842567155635 L877.35547439687 86.15520238439697 C877.35547439687 84.38877442063325 877.2433287291863 83.02891461154647 877.0190106542698 82.07560290247504 C876.8227423660488 81.09426146136987 876.4302057896067 80.39329755924857 875.8414009249436 79.97272456588554 C875.2806458469759 79.52410847071438 874.4535113838231 79.2997970806852 873.3599975354854 79.2997970806852 C871.8739738502543 79.2997970806852 870.3178390680592 79.6222426148249 868.6915931889004 80.26712699821711 L867.9766311329802 80.60358405593007 L867.9766311329802 97.25842567155635 L864.0652501525839 97.25842567155635 L864.0652501525839 76.2295888265638 Z M893.5897497040205 97.721059975188 C892.1036992792406 97.721059975188 890.9401010734877 97.48273037669834 890.0989550867616 97.00607786460623 C889.2858321471822 96.52942535251411 888.697027282519 95.73032730628229 888.3325404927723 94.60879041079798 C887.9680269634767 93.48725351531365 887.7857969383779 91.93111873311865 887.7857969383779 89.94039274910014 L887.7857969383779 79.59419951301675 L884.9679298063194 79.59419951301675 L884.9679298063194 76.2295888265638 L887.7857969383779 76.2295888265638 L887.7857969383779 69.96299507240234 L891.6971511792253 69.96299507240234 L891.6971511792253 76.2295888265638 L897.8796289977367 76.2295888265638 L897.8796289977367 79.59419951301675 L891.6971511792253 79.59419951301675 L891.6971511792253 89.22541063851837 C891.6971511792253 90.54321582222373 891.7392124894939 91.53858215667657 891.8233351100312 92.21150295698972 C891.9354807777149 92.85638734038193 892.1738103762046 93.3610829542822 892.5382971659513 93.72558311380331 C892.9028106952468 94.06204017151629 893.49161555991 94.23027204281638 894.3047384994894 94.23027204281638 L897.8796289977367 94.01998554613486 L898.1319701197996 97.21637104617493 C896.1692872375893 97.5528281038879 894.6552137656629 97.721059975188 893.5897497040205 97.721059975188 Z M909.7188583657249 97.721059975188 C906.4944431336511 97.721059975188 904.1952965088407 96.89392551203524 902.8214184912933 95.2396565857297 C901.4475137341973 93.55735124250323 900.7605747254237 90.90771598174484 900.7605747254237 87.29075748834177 C900.7605747254237 83.3934147710676 901.4895750444659 80.50544991181955 902.9475756825505 78.62687628037204 C904.4336261073303 76.72025954711638 906.7187612085676 75.76695452293215 909.8029809862622 75.76695452293215 C915.5228111313676 75.76695452293215 918.3827395736946 79.01941285681411 918.3827395736946 85.52433620946525 L918.1303984516318 88.38425796690512 L904.7139902765398 88.38425796690512 C904.7420400632351 89.89833143883152 904.9383083514562 91.07594785304494 905.3028218807517 91.91710052465817 C905.6673086704984 92.73021677935046 906.2561135351615 93.31902164401357 907.0692364747409 93.68352180353469 C907.8823594143205 94.04802196305582 909.0319193569513 94.23027204281638 910.5179697817312 94.23027204281638 C911.3871655551526 94.23027204281638 912.3685069962577 94.2162538343559 913.4619941050468 94.18821741743496 C914.5555079533844 94.13213789870586 915.5368493944896 94.06204017151629 916.4060451679111 93.97792423586624 L917.5836548972372 93.85175367483478 L917.6677775177745 96.87990730357475 C914.38726271231 97.44067575131692 911.737640821326 97.721059975188 909.7188583657249 97.721059975188 Z M914.4713853328473 85.31404302789653 C914.4713853328473 83.04293282000695 914.1068718035517 81.43071851908284 913.3778714845095 80.47741349489861 C912.6769209521625 79.52410847071438 911.4852996992631 79.04745595862227 909.8029809862622 79.04745595862227 C908.0365663922729 79.04745595862227 906.746784255714 79.55214488763532 905.9336613161346 80.56152943054866 C905.1205651161039 81.54287755654103 904.6999787529664 83.12704875565699 904.67195570582 85.31404302789653 L914.4713853328473 85.31404302789653 Z M904.3775532734884 70.13122694370242 L913.9667030887214 65.96751821101765 L915.228408699036 69.3321288974706 L905.38691776174 72.73880089419218 L904.3775532734884 70.13122694370242 Z M923.0441381584931 76.2295888265638 L926.9134578286207 76.2295888265638 L926.9134578286207 78.87922408732217 C929.4088460021035 77.28102799485855 931.8762646075372 76.24360703502427 934.3156066867269 75.76695452293215 L934.3156066867269 79.72037675893542 C933.222119577938 79.9446814640774 932.0865444193315 80.25310878975662 930.9089346900054 80.64564536619869 C929.7313249606791 81.03818194264078 928.749983519574 81.41670031062236 927.9649103666898 81.78120047014349 L926.9554923993405 82.24383477377513 L926.9554923993405 97.25842567155635 L923.0441381584931 97.25842567155635 L923.0441381584931 76.2295888265638 Z M937.9115412098829 76.2295888265638 L941.7808074009129 76.2295888265638 L941.7808074009129 77.61749173745872 C942.8743479887995 76.97260735406651 943.8837124770512 76.50997305043488 944.8090078238633 76.2295888265638 C945.7622727387243 75.92116818577178 946.7716907060736 75.76695452293215 947.837154767716 75.76695452293215 C950.4727651351268 75.76695452293215 952.3933599675197 76.65016850481402 953.5990462230901 78.41658978369054 C954.832755525807 80.1549746456461 955.4495834376166 82.91676225897548 955.4495834376166 86.70195262367865 C955.4495834376166 89.36559940801031 955.1411694817118 91.51054573975563 954.5242880908046 93.13677156425301 C953.9074601789949 94.73496765671663 952.9121072143164 95.89855917758238 951.5382291967692 96.62755949662463 C950.1923742263685 97.35655981566687 948.3838715825617 97.721059975188 946.1127747444466 97.721059975188 C944.8510423945831 97.721059975188 943.4210648036452 97.58086452080886 941.8228954507304 97.30048029693778 L941.8228954507304 106.42699580853913 L937.9115412098829 106.42699580853913 L937.9115412098829 76.2295888265638 Z M945.9445295033721 94.31438797846643 C947.9633119589731 94.31438797846643 949.3792780263378 93.72558311380331 950.1923742263685 92.5479666995899 C951.0334934735457 91.37035028537649 951.454106576232 89.44971534366036 951.454106576232 86.7860618744415 C951.454106576232 84.1504515070308 951.0895930469364 82.24383477377513 950.360619467443 81.06621835956172 C949.6315924088519 79.88860863023551 948.4960172502456 79.2997970806852 946.9539474707215 79.2997970806852 C946.2529434592769 79.2997970806852 945.495946832637 79.4119561181434 944.6827971535087 79.63626082328537 C943.869700953478 79.8325291115064 943.1547388975578 80.07085870999606 942.5378575066505 80.35124293386714 L941.8228954507304 80.72976130184874 L941.8228954507304 93.8938149851034 C943.7855783329406 94.17419920897449 945.159456350488 94.31438797846643 945.9445295033721 94.31438797846643 Z M960.2967149284073 76.2295888265638 L964.1660345985349 76.2295888265638 L964.1660345985349 78.87922408732217 C966.6614762511152 77.28102799485855 969.1288413774515 76.24360703502427 971.5681834566411 75.76695452293215 L971.5681834566411 79.72037675893542 C970.4746963478522 79.9446814640774 969.3391211892458 80.25310878975662 968.1615114599196 80.64564536619869 C966.9839017305934 81.03818194264078 966.0025602894882 81.41670031062236 965.2174871366041 81.78120047014349 L964.2080691692547 82.24383477377513 L964.2080691692547 97.25842567155635 L960.2967149284073 97.25842567155635 L960.2967149284073 76.2295888265638 Z M982.8676750320216 97.721059975188 C979.6432597999477 97.721059975188 977.3440864355885 96.89392551203524 975.9702084180412 95.2396565857297 C974.5963304004939 93.55735124250323 973.9093913917203 90.90771598174484 973.9093913917203 87.29075748834177 C973.9093913917203 83.3934147710676 974.6383649712137 80.50544991181955 976.0963656092982 78.62687628037204 C977.5824427736269 76.72025954711638 979.8675511353154 75.76695452293215 982.9517976525588 75.76695452293215 C988.6716545372129 75.76695452293215 991.5315562399912 79.01941285681411 991.5315562399912 85.52433620946525 L991.2791883783796 88.38425796690512 L977.8628336823851 88.38425796690512 C977.8908567295317 89.89833143883152 978.0871250177528 91.07594785304494 978.4516385470483 91.91710052465817 C978.8160985972462 92.73021677935046 979.4049034619093 93.31902164401357 980.2180531410376 93.68352180353469 C981.0311493410683 94.04802196305582 982.180736023248 94.23027204281638 983.6667597084789 94.23027204281638 C984.5359554819004 94.23027204281638 985.5172969230056 94.2162538343559 986.6107840317945 94.18821741743496 C987.7043246196811 94.13213789870586 988.6856660607863 94.06204017151629 989.5548618342076 93.97792423586624 L990.7324715635339 93.85175367483478 L990.816594184071 96.87990730357475 C987.5360793786066 97.44067575131692 984.8864574876226 97.721059975188 982.8676750320216 97.721059975188 Z M987.6202019991438 85.31404302789653 C987.6202019991438 83.04293282000695 987.2556884698483 81.43071851908284 986.5267148903548 80.47741349489861 C985.8257108789104 79.52410847071438 984.6340896260109 79.04745595862227 982.9517976525588 79.04745595862227 C981.1853830585695 79.04745595862227 979.8955741824619 79.55214488763532 979.0824779824312 80.56152943054866 C978.2693817824005 81.54287755654103 977.8487686797143 83.12704875565699 977.8207456325678 85.31404302789653 L987.6202019991438 85.31404302789653 Z M1002.9239410079166 97.721059975188 C1001.4378638435879 97.721059975188 1000.2743191169326 97.48273037669834 999.4331463906578 97.00607786460623 C998.6200501906271 96.52942535251411 998.0311918468664 95.73032730628229 997.6667317966685 94.60879041079798 C997.302218267373 93.48725351531365 997.1199615027252 91.93111873311865 997.1199615027252 89.94039274910014 L997.1199615027252 79.59419951301675 L994.3020943706667 79.59419951301675 L994.3020943706667 76.2295888265638 L997.1199615027252 76.2295888265638 L997.1199615027252 69.96299507240234 L1001.0313157435726 69.96299507240234 L1001.0313157435726 76.2295888265638 L1007.2138203016328 76.2295888265638 L1007.2138203016328 79.59419951301675 L1001.0313157435726 79.59419951301675 L1001.0313157435726 89.22541063851837 C1001.0313157435726 90.54321582222373 1001.0734037933901 91.53858215667657 1001.1575264139273 92.21150295698972 C1001.2696720816111 92.85638734038193 1001.5079749405519 93.3610829542822 1001.8724884698474 93.72558311380331 C1002.237001999143 94.06204017151629 1002.8258068638061 94.23027204281638 1003.6389030638368 94.23027204281638 L1007.2138203016328 94.01998554613486 L1007.4661346841469 97.21637104617493 C1005.5034518019366 97.5528281038879 1003.989405069559 97.721059975188 1002.9239410079166 97.721059975188 Z M1019.0513115989488 97.721059975188 C1015.8268963668751 97.721059975188 1013.5277230025157 96.89392551203524 1012.1538449849685 95.2396565857297 C1010.7799669674212 93.55735124250323 1010.0930279586476 90.90771598174484 1010.0930279586476 87.29075748834177 C1010.0930279586476 83.3934147710676 1010.8220015381411 80.50544991181955 1012.2800021762255 78.62687628037204 C1013.7660258614566 76.72025954711638 1016.0511877022426 75.76695452293215 1019.1354342194861 75.76695452293215 C1024.8552376250427 75.76695452293215 1027.7151928069186 79.01941285681411 1027.7151928069186 85.52433620946525 L1027.4628249453067 88.38425796690512 L1014.0464167702148 88.38425796690512 C1014.074493296459 89.89833143883152 1014.27076158468 91.07594785304494 1014.6352216348779 91.91710052465817 C1014.9997351641734 92.73021677935046 1015.5885400288365 93.31902164401357 1016.4016362288672 93.68352180353469 C1017.2147859079955 94.04802196305582 1018.3643725901752 94.23027204281638 1019.8503962754063 94.23027204281638 C1020.7195920488276 94.23027204281638 1021.7009334899328 94.2162538343559 1022.7944205987218 94.18821741743496 C1023.8879077075107 94.13213789870586 1024.8692491486158 94.06204017151629 1025.7384449220372 93.97792423586624 L1026.9160546513635 93.85175367483478 L1027.0001772719006 96.87990730357475 C1023.7197159455338 97.44067575131692 1021.0700405754523 97.721059975188 1019.0513115989488 97.721059975188 Z M1023.8037850869736 85.31404302789653 C1023.8037850869736 83.04293282000695 1023.4393250367756 81.43071851908284 1022.7102979781846 80.47741349489861 C1022.0093474458376 79.52410847071438 1020.8177261929382 79.04745595862227 1019.1354342194861 79.04745595862227 C1017.3689661463992 79.04745595862227 1016.0792107493892 79.55214488763532 1015.2661145493585 80.56152943054866 C1014.4529648702302 81.54287755654103 1014.0324052466416 83.12704875565699 1014.004382199495 85.31404302789653 L1023.8037850869736 85.31404302789653 Z "></path>
      <filter id="s-Path_2-e4296-shadow" filterUnits="userSpaceOnUse" x="499.17478238990236" y="-4.871395394376066" width="599.1726074218749" height="164.70664978027344">
        <feOffset dx="-2.4492935982947064E-16" dy="4.0" input="SourceAlpha"></feOffset>
        <feGaussianBlur result="blur" stdDeviation="2.0"></feGaussianBlur>
        <feFlood flood-color="#000000" flood-opacity="0.25"></feFlood>
        <feComposite operator="in" in2="blur"></feComposite>
        <feComposite in="SourceGraphic"></feComposite>
      </filter>
      <path id="s-Path_3-e4296" d="M471.7442746925193 2.4804523742945266 L768.3122093839607 104.79315485880312 L921.4109132570961 156.13996731132804 C921.4109132570961 156.13996731132804 1005.508719493051 184.43760288454152 1029.2275014686238 165.11069821159754 C1052.9480482544177 145.784141152788 1113.123798464792 -1.6237984647919461 1113.123798464792 -1.6237984647919461 "></path>
      <path id="s-Path_4-e4296" d="M738.9366758589111 49.26598663324126 C737.0020160238473 49.26598663324126 734.394455443132 48.99962061783066 731.1139406376674 48.46689192945305 L729.599867165741 48.214544122502915 L730.0204535288785 44.97610399708142 C733.80562383892 45.48079626853808 736.6936020679425 45.73314407548821 738.6843347368482 45.73314407548821 C742.4695050468897 45.73314407548821 744.3621035716849 44.00877742199311 744.3621035716849 40.5600474574465 C744.3621035716849 39.60674243326227 744.1658352834639 38.849702354855474 743.7732987070219 38.28893390711331 C743.3807621305798 37.7001257000066 742.7498959556481 37.237491396374956 741.8807001822266 36.90103099621838 C741.0395541955006 36.53653083669726 739.8479329426011 36.18604888563661 738.3058096839794 35.849588485480034 C736.0346861063153 35.31685979710242 734.2682715123261 34.72805158999571 733.0065391624626 34.083167206603505 C731.7448068125991 33.41024306384675 730.8195382053359 32.555072183773035 730.2307333406727 31.517647881495158 C729.6419284760098 30.480226921660886 729.3475260436782 29.120360427686904 729.3475260436782 27.438055084460423 C729.3475260436782 24.77440161524156 730.1466107201355 22.76965240909717 731.7448068125991 21.423807466027267 C733.3430029050628 20.07796085173556 735.6982223637152 19.405038380200608 738.8104919281052 19.405038380200608 C739.9600786102849 19.405038380200608 741.193761173453 19.47513443616838 742.5115663571584 19.615326548103916 C743.8574213275591 19.755518660039456 745.6238359215483 20.00786479576779 747.8108368786752 20.372364955288916 L747.474373136075 23.652863048535437 C743.6331032526427 23.204248624586064 740.8572974308529 22.979940577000484 739.1469556707054 22.979940577000484 C735.3056857872732 22.979940577000484 733.3850642153315 24.381865038799482 733.3850642153315 27.18570727751029 C733.3850642153315 28.223131579788166 733.5953440271257 29.036244492036857 734.0159303902632 29.625052699143566 C734.4645398005471 30.213860906250275 735.165490332894 30.704534969246467 736.1188087268526 31.097071545688543 C737.0721271208113 31.461571705209664 738.5160894957737 31.86812983255581 740.4507493308375 32.31674592772698 C742.4695050468897 32.821438199183646 744.0396780922068 33.3822066469258 745.1612149876912 33.99905127095346 C746.2827518831755 34.615895894981115 747.0958480832062 35.414993941212934 747.6005570668808 36.39633872476172 C748.1332890977021 37.3776835083105 748.3996417433382 38.66745227509491 748.3996417433382 40.26564502511495 C748.3996417433382 43.237719135125836 747.5865455433076 45.48079626853808 745.9602996641486 46.99487308290807 C744.3621035716849 48.50894989727807 742.0208956366058 49.26598663324126 738.9366758589111 49.26598663324126 Z M753.1924652105081 27.81657345244202 L757.1038461909043 27.81657345244202 L757.1038461909043 48.84541029743465 L753.1924652105081 48.84541029743465 L753.1924652105081 27.81657345244202 Z M753.1924652105081 19.447096348025628 L757.0617848806357 19.447096348025628 L757.0617848806357 23.69492101636046 L753.1924652105081 23.69492101636046 L753.1924652105081 19.447096348025628 Z M769.7000989250814 49.308044601066285 C768.0738797854713 49.308044601066285 765.9569631857596 49.083736553480705 763.3494026050442 48.63512045830954 L762.0876702551808 48.424833961628025 L762.2558887567066 45.060219932731464 C765.6485492298548 45.53687244482358 768.0738797854713 45.77519870086964 769.5318804235557 45.77519870086964 C771.0179041087868 45.77519870086964 772.139441004271 45.55089399572765 772.8964911100086 45.10227790055648 C773.6535412157461 44.65366180538531 774.0320395290662 43.92466148634306 774.0320395290662 42.91527694342974 C774.0320395290662 42.18627996683109 773.8357712408451 41.6395297275494 773.4432346644031 41.27502956802827 C773.0787478746564 40.882489649142606 772.6020886776771 40.602105425271525 772.0132838130139 40.433876896415036 C771.424478948351 40.237605265750396 770.5833062220761 40.05535518598984 769.489819113287 39.88712665713335 L768.4804278854865 39.71889478583326 C766.8822317930229 39.46655032132673 765.6064879195862 39.144108129630624 764.6531962651763 38.751568210744956 C763.7279276579131 38.35903163430288 763.0129388624441 37.78424163565665 762.5082566183182 37.02720489969345 C762.0035476346436 36.27016482128665 761.7512065125807 35.23274386145238 761.7512065125807 33.91493533530342 C761.7512065125807 29.568976522858073 764.4148666666867 27.3959971166354 769.74216023535 27.3959971166354 C771.424478948351 27.3959971166354 773.5273572849403 27.60628361331691 776.0508219846672 28.026863291567132 L777.2704930242621 28.27920775607366 L777.1863704037248 31.55970584932018 C774.0460777921883 31.111089754149013 771.6347587601451 30.88678504900703 769.9524667866931 30.88678504900703 C767.092538344366 30.88678504900703 765.6625607534281 31.755974137541216 765.6625607534281 33.4943589994968 C765.6625607534281 34.139243382889 765.8448175180758 34.64393565434567 766.2093310473713 35.00843581386679 C766.5738178371181 35.344896214023365 767.0364655105241 35.5972440209735 767.5972205884918 35.76547254982999 C768.186025453155 35.933704421130074 769.0131599163078 36.11595450089064 770.0786239779502 36.31222278911167 C770.2748922661713 36.340262548476225 770.6674288426133 36.41035693322219 771.2562337072764 36.52251262823678 C772.9105026335819 36.83093326902881 774.2002847701408 37.19543342854994 775.125553377404 37.616009764356555 C776.0788450318139 38.00854968324223 776.7798223037096 38.59735789034894 777.2284317139935 39.38243438567668 C777.7050909109728 40.16751088100443 777.9434205094624 41.23297160020326 777.9434205094624 42.578816543273156 C777.9434205094624 44.906009612335446 777.2704930242621 46.61635471492647 775.9246380538614 47.70985185104625 C774.5788098230096 48.77531257024508 772.5039545335666 49.308044601066285 769.7000989250814 49.308044601066285 Z M789.3322756569457 49.308044601066285 C787.8462519717147 49.308044601066285 786.6826537659617 49.06971834502023 785.8414810396869 48.59306583292811 C785.0283848396562 48.1164099783924 784.4395799749931 47.31731527460418 784.0750664456975 46.19577837911986 C783.7105796559508 45.074238141191934 783.5283228913031 43.51810335899692 783.5283228913031 41.52737403253481 L783.5283228913031 31.181187481338583 L780.7104557592446 31.181187481338583 L780.7104557592446 27.81657345244202 L783.5283228913031 27.81657345244202 L783.5283228913031 21.54997969828053 L787.4396771321506 21.54997969828053 L787.4396771321506 27.81657345244202 L793.622154950662 27.81657345244202 L793.622154950662 31.181187481338583 L787.4396771321506 31.181187481338583 L787.4396771321506 40.812395264396635 C787.4396771321506 42.13020044810199 787.4817384424191 43.12556678255485 787.5658610629564 43.7984909253116 C787.6780067306402 44.44337530870381 787.9163363291298 44.94806423771687 788.2808498584254 45.31256439723799 C788.6453366481721 45.64902813983817 789.2341415128351 45.817256668694654 790.0472644524147 45.817256668694654 L793.622154950662 45.60697017201315 L793.8744960727249 48.80335232960962 C791.9118131905145 49.1398127297662 790.3977397185881 49.308044601066285 789.3322756569457 49.308044601066285 Z M805.4596462479778 49.308044601066285 C802.2352310159041 49.308044601066285 799.9360576515448 48.48091013791352 798.5621796339975 46.826641211607985 C797.1883016164503 45.1443358683815 796.5013626076766 42.494700607623116 796.5013626076766 38.87774211422002 C796.5013626076766 34.98039605450224 797.230362926719 32.0924378801414 798.6883635648035 30.213860906250275 C800.1743872500344 28.307247515438213 802.4595223512717 27.353939148810376 805.5437688685151 27.353939148810376 C811.2635990136205 27.353939148810376 814.1235274559476 30.60639748269235 814.1235274559476 37.11132083534349 L813.8711863338847 39.97124259278339 L800.4547781587927 39.97124259278339 C800.482827945488 41.485316064709785 800.6790962337091 42.6629324789232 801.0435830234558 43.50408515053645 C801.4080965527514 44.31720140522874 801.9969014174144 44.906009612335446 802.810024356994 45.27050642941297 C803.6231205570245 45.6350065889341 804.7727072392042 45.817256668694654 806.2587309244353 45.817256668694654 C807.1279266978568 45.817256668694654 808.1092681389619 45.80323846023418 809.2027819872997 45.77519870086964 C810.2962690960886 45.71912252458414 811.2776105371938 45.64902813983817 812.1468063106151 45.564912204188126 L813.3244427794903 45.438738300713055 L813.4085386604786 48.46689192945305 C810.128050594563 49.027660377195204 807.4784019640301 49.308044601066285 805.4596462479778 49.308044601066285 Z M810.2121732151002 36.90103099621838 C810.2121732151002 34.62991744588519 809.8476596858047 33.01770648740468 809.1186593667624 32.06439812077685 C808.4177088344155 31.111089754149013 807.2260608419672 30.634437242056897 805.5437688685151 30.634437242056897 C803.7773275349771 30.634437242056897 802.487572137967 31.13912951351356 801.6744491983875 32.14851405642689 C800.8613529983569 33.129858839975675 800.4407666352195 34.71403338153524 800.412716848524 36.90103099621838 L810.2121732151002 36.90103099621838 Z M818.7849260407461 27.81657345244202 L822.6542189713248 27.81657345244202 L822.6542189713248 29.20447636333695 C823.7196830329673 28.587631739309295 824.7290742607678 28.12499743567765 825.6823659151776 27.81657345244202 C826.6356843091362 27.508149469206387 827.6170257502414 27.353939148810376 828.626416978042 27.353939148810376 C829.7199040868309 27.353939148810376 830.7292953146314 27.53618922857094 831.6545639218947 27.90068938809206 C832.579832529158 28.237149788248637 833.3088328482003 28.755860268165776 833.8415648790215 29.456824170287078 C834.9631017745057 28.839976203815823 836.1827728141006 28.33528393235916 837.500577997806 27.942747355917085 C838.8464329682067 27.55020743703141 840.2062994621806 27.353939148810376 841.5801774797278 27.353939148810376 C843.3185690265707 27.353939148810376 844.6784355205446 27.704421099871027 845.6597769616499 28.40538165954873 C846.641118402755 29.106342219226427 847.3420689351019 30.199842697789805 847.7626552982392 31.685879752795252 C848.1832416613768 33.17191680780069 848.393521473171 35.16264613426281 848.393521473171 37.65806773218158 L848.393521473171 48.84541029743465 L844.4821672323236 48.84541029743465 L844.4821672323236 37.742183667831625 C844.4821672323236 35.9757623889551 844.369994825091 34.615895894981115 844.1457034897235 33.66259087079688 C843.9494352015024 32.68124274480451 843.5709101486336 31.980282185126804 843.010128331117 31.55970584932018 C842.4773963002958 31.111089754149013 841.6783116238385 30.88678504900703 840.612847562196 30.88678504900703 C839.8277744093118 30.88678504900703 839.0146514697324 30.98491919311755 838.1735054830062 31.181187481338583 C837.3323594962803 31.34941935263867 836.5893209141159 31.57372405778066 835.9444432156109 31.85411162409534 L835.1874198494222 32.190572024251914 C835.495833805327 33.39622485538628 835.6500407832793 35.30283824619835 835.6500407832793 37.91041553913171 L835.6500407832793 48.84541029743465 L831.6966252321633 48.84541029743465 L831.6966252321633 37.99453147478176 C831.6966252321633 36.11595450089064 831.5984910880528 34.68599362217069 831.4022227998319 33.70464883862191 C831.2059545116108 32.695264295708576 830.827429458742 31.980282185126804 830.2666743807742 31.55970584932018 C829.7339423499529 31.111089754149013 828.9348309339468 30.88678504900703 827.8693668723043 30.88678504900703 C827.0842937194202 30.88678504900703 826.2711975193895 30.98491919311755 825.4300247931146 31.181187481338583 C824.6169285930839 31.377455769559617 823.9299628447616 31.601763817145205 823.3692077667938 31.85411162409534 L822.6962802815934 32.190572024251914 L822.6962802815934 48.84541029743465 L818.7849260407461 48.84541029743465 L818.7849260407461 27.81657345244202 Z M858.7361917736995 49.308044601066285 C856.7454858443425 49.308044601066285 855.2313856328674 48.74727615332413 854.1939713579203 47.625739257839804 C853.1565570829732 46.50419901991189 852.6378365757253 44.89198806143137 852.6378365757253 42.78910638239827 C852.6378365757253 40.71426112028612 853.1705686065466 39.200184305916125 854.236032668189 38.24687593928829 C855.3014967298313 37.26553115573951 856.9978269664055 36.66270474017232 859.3250233779114 36.43839669258674 L865.2971946450797 35.89164645330505 L865.2971946450797 34.25139907790359 C865.2971946450797 33.01770648740468 865.0308419994435 32.13449584796642 864.4981099686222 31.601763817145205 C863.9653779378011 31.040995369403042 863.1803047849169 30.76061114553196 862.1428637704211 30.76061114553196 C859.7876443117686 30.76061114553196 857.0679113238207 30.92883967438845 853.983691546126 31.26530341698863 L853.8575076153202 28.40538165954873 C856.8295817253311 27.704421099871027 859.5913760235476 27.353939148810376 862.1428637704211 27.353939148810376 C864.6102556363061 27.353939148810376 866.4047200169907 27.91470759655254 867.526256912475 29.036244492036857 C868.6477938079594 30.129744970600235 869.208575625476 31.86812983255581 869.208575625476 34.25139907790359 L869.208575625476 44.38729578997471 C869.2646484593179 44.94806423771687 869.4468784844169 45.38266212442756 869.7553191798704 45.69108610766319 C870.0917829224707 45.97147033153427 870.6104766901697 46.167738619755305 871.3114539620655 46.2798909723263 L871.1852700312595 49.308044601066285 C869.9796105152379 49.308044601066285 868.9562077638642 49.167852489130745 868.1150617771382 48.88746826525966 C867.273915790412 48.63512045830954 866.5309039477966 48.22856567340699 865.8859995097428 47.66779388322123 C863.502730264395 48.7612943617846 861.1194610190473 49.308044601066285 858.7361917736995 49.308044601066285 Z M859.4511805691684 46.027546507819764 C861.1615223293159 46.027546507819764 862.8157912556214 45.76118049240916 864.413987348085 45.22845180403155 L865.2971946450797 44.93404602925639 L865.2971946450797 38.751568210744956 L859.8297056220372 39.25626048220162 C858.7361917736995 39.36841283477261 857.9230955736688 39.70487657737279 857.3903635428476 40.26564502511495 C856.885654559173 40.79837705593616 856.63331343711 41.59747175972438 856.63331343711 42.6629324789232 C856.63331343711 44.906009612335446 857.5726203074953 46.027546507819764 859.4511805691684 46.027546507819764 Z "></path>
      <filter id="s-Path_4-e4296-shadow" filterUnits="userSpaceOnUse" x="466.7550839948493" y="-6.123798464791946" width="650.8687133789064" height="187.98814392089844">
        <feOffset dx="-2.4492935982947064E-16" dy="4.0" input="SourceAlpha"></feOffset>
        <feGaussianBlur result="blur" stdDeviation="2.0"></feGaussianBlur>
        <feFlood flood-color="#000000" flood-opacity="0.25"></feFlood>
        <feComposite operator="in" in2="blur"></feComposite>
        <feComposite in="SourceGraphic"></feComposite>
      </filter>
    </defs>
    <g>
      <use xmlns:xlink="http://www.w3.org/1999/xlink" xlink:href="#s-Path_1-e4296" fill="#008542" fill-opacity="1.0" stroke-width="1" stroke="#008542" stroke-linecap="butt" filter="none"></use>
    </g>
    <g>
      <use xmlns:xlink="http://www.w3.org/1999/xlink" xlink:href="#s-Path_2-e4296" fill="#EFEFEF" fill-opacity="1.0" filter="url(#s-Path_2-e4296-shadow)"></use>
    </g>
    <g>
      <use xmlns:xlink="http://www.w3.org/1999/xlink" xlink:href="#s-Path_3-e4296" fill="none" stroke-width="3" stroke="#FDC82F" stroke-linecap="butt" filter="none"></use>
    </g>
    <g>
      <use xmlns:xlink="http://www.w3.org/1999/xlink" xlink:href="#s-Path_4-e4296" fill="#EFEFEF" fill-opacity="1.0" filter="url(#s-Path_4-e4296-shadow)"></use>
    </g>
  </g>
</svg>
